# xmcd
#
# Track frame offsets:
#	150
#	13249
#	23780
#	35047
#	45641
#	55617
#	66552
#	76835
#	87161
#	99818
#
# Disc length: 1464 seconds
#
# Revision: 1
# Processed by: cddbd v1.5.2PL0 Copyright (c) Steve Scherf et al.
# Submitted via: audiograbber 1.83.01
#
DISCID=7505b60a
DTITLE=George Jones - Seasons Of My Heart
DYEAR=1900
DGENRE=
TTITLE0=Seasons Of My Heart
TTITLE1=No Money In This Deal
TTITLE2=Eskimo Pie
TTITLE3=It's O.k.
TTITLE4=No Use To Cry
TTITLE5=Long Time To Forget
TTITLE6=I'm Ragged But I'm Right
TTITLE7=Uh Uh No
TTITLE8=Theme From Danny Boy
TTITLE9=Don't Do This To Me
EXTD=
EXTT0=
EXTT1=
EXTT2=
EXTT3=
EXTT4=
EXTT5=
EXTT6=
EXTT7=
EXTT8=
EXTT9=
PLAYORDER=
